<svg width="54" height="54" viewBox="0 0 54 54" fill="none" xmlns="http://www.w3.org/2000/svg"><path d="M27.016 45.487c10.126 0 18.333-8.246 18.333-18.417 0-10.171-8.207-18.417-18.333-18.417-10.125 0-18.332 8.246-18.332 18.417 0 10.171 8.207 18.417 18.332 18.417z" fill="url(#paint0_linear)" stroke="url(#paint1_linear)" stroke-width=".273"/><path d="M26.942 45.857c10.418 0 18.858-8.484 18.858-18.943 0-10.46-8.44-18.944-18.858-18.944-10.418 0-18.858 8.485-18.858 18.944s8.44 18.943 18.858 18.943z" stroke="url(#paint2_linear)" stroke-width="1.325"/><path d="M26.942 45.416c10.172 0 18.417-8.285 18.417-18.502 0-10.218-8.245-18.502-18.417-18.502-10.172 0-18.417 8.284-18.417 18.502 0 10.217 8.245 18.502 18.417 18.502z" stroke="url(#paint3_linear)" stroke-width=".442"/><circle cx="27.052" cy="27.135" r="21.893" stroke="url(#paint4_linear)" stroke-width=".315"/><circle cx="26.935" cy="27.021" r="24.217" stroke="url(#paint5_linear)" stroke-width=".157"/><circle cx="27.05" cy="27.136" r="26.349" stroke="url(#paint6_linear)" stroke-width=".074"/><defs><linearGradient id="paint0_linear" x1="27.016" y1="8.789" x2="27.016" y2="45.351" gradientUnits="userSpaceOnUse"><stop stop-color="#7F0E10"/><stop offset="1" stop-color="#DE1F26"/></linearGradient><linearGradient id="paint1_linear" x1="27.016" y1="8.789" x2="27.016" y2="46.657" gradientUnits="userSpaceOnUse"><stop offset=".01" stop-color="#C80108"/><stop offset=".536" stop-color="#373541"/><stop offset="1" stop-color="#5D6480"/></linearGradient><linearGradient id="paint2_linear" x1="32.314" y1=".81" x2="32.426" y2="46.831" gradientUnits="userSpaceOnUse"><stop offset=".104" stop-color="#7A0C0E"/><stop offset=".552" stop-color="#961519"/><stop offset="1" stop-color="#C25B55"/></linearGradient><linearGradient id="paint3_linear" x1="31.051" y1="5.432" x2="31.152" y2="47.021" gradientUnits="userSpaceOnUse"><stop offset=".156" stop-color="#DD1E26"/><stop offset="1" stop-color="#881717"/></linearGradient><linearGradient id="paint4_linear" x1="29.197" y1="-.553" x2="29.325" y2="51.141" gradientUnits="userSpaceOnUse"><stop stop-color="#A62027"/><stop offset="1" stop-color="red" stop-opacity="0"/></linearGradient><linearGradient id="paint5_linear" x1="29.317" y1="-3.728" x2="29.459" y2="53.68" gradientUnits="userSpaceOnUse"><stop offset=".138" stop-color="#A62027"/><stop offset="1" stop-color="red" stop-opacity="0"/></linearGradient><linearGradient id="paint6_linear" x1="29.647" y1="-6.381" x2="29.802" y2="56.196" gradientUnits="userSpaceOnUse"><stop stop-color="#A62027"/><stop offset="1" stop-color="red" stop-opacity="0"/></linearGradient></defs></svg>