<svg width="144" height="142" viewBox="0 0 144 142" fill="none" xmlns="http://www.w3.org/2000/svg">
<path d="M46.7807 80.8278L55.2203 89.6771C57.6449 92.2194 60.9748 93.7022 64.4865 93.8032L71.9282 94.0174L82.3232 96.4984C86.4179 97.4757 90.7336 96.462 93.9651 93.764L96.5095 91.6397L104.908 90.5924L98.0209 85.0486L101.044 85.426V85.426C104.297 85.8322 108.777 89.3826 111.871 88.3005L115.988 86.8607C117.963 86.17 118.409 83.5777 116.78 82.2657L111.949 78.3778L115.557 75.2274C116.806 74.1362 116.767 72.1812 115.475 71.1411L110.897 67.4565L114.007 65.2461C115.448 64.2215 115.511 62.1036 114.134 60.9948L98.0903 48.081C94.8998 45.5129 90.7061 44.5534 86.7164 45.4787L67.1713 50.0114C64.0359 50.7386 61.058 52.0273 58.3816 53.8153L25.8379 75.5561L46.7807 80.8278Z" fill="#CB0A11"/>
<path d="M98.0209 85.0486L101.044 85.426V85.426C104.297 85.8322 108.777 89.3826 111.871 88.3005L115.988 86.8607C117.963 86.17 118.409 83.5777 116.78 82.2657L111.949 78.3778L115.557 75.2274C116.806 74.1362 116.767 72.1812 115.475 71.1411L110.897 67.4565L114.007 65.2461C115.448 64.2215 115.511 62.1036 114.134 60.9948L98.0903 48.081C94.8998 45.5129 90.7061 44.5534 86.7164 45.4787L67.1713 50.0114C64.0359 50.7386 61.058 52.0273 58.3816 53.8153L25.8379 75.5561L46.7807 80.8278L55.2203 89.6771C57.6449 92.2194 60.9748 93.7022 64.4865 93.8032L71.9282 94.0174L82.3232 96.4984C86.4179 97.4757 90.7336 96.462 93.9651 93.764L96.5095 91.6397L104.908 90.5924L98.0209 85.0486ZM98.0209 85.0486L82.9799 85.1267" stroke="#DABA6E" stroke-width="1.32663" stroke-linecap="round" stroke-linejoin="round"/>
<path d="M25.8418 75.5564L50.94 58.9172C53.0845 57.4954 55.5524 56.8186 58.0009 56.871C61.9605 56.9556 61.9752 61.7876 58.628 63.9047V63.9047C52.9297 67.5089 48.808 73.1377 47.0924 79.6582L46.7846 80.8281L25.8418 75.5564Z" fill="#922F2F" stroke="#DABA6E" stroke-width="1.32663" stroke-linecap="round" stroke-linejoin="round"/>
<path d="M64.8665 93.2756C65.6479 87.3426 70.2891 73.2472 91.1221 70.7584C74.3748 64.9813 78.8786 56.1959 63.2207 51.7236M78.0889 90.3153L82.045 85.2255M115.479 81.2151L109.249 76.201C107.12 74.4872 104.516 73.469 101.789 73.2844L92.9917 72.6887M112.458 68.709L109.203 66.525C107.328 65.267 105.165 64.5057 102.916 64.3123L93.4711 63.5003M112.216 59.44L110.3 58.0945C108.506 56.8346 106.43 56.0363 104.254 55.7703L95.1008 54.6509" stroke="#DABA6E" stroke-width="1.32663" stroke-linecap="round" stroke-linejoin="round"/>
<path d="M92.9431 72.2221C91.3655 70.9522 89.057 71.2017 87.7871 72.7794C86.5172 74.3571 86.7667 76.6655 88.3444 77.9354C89.9221 79.2053 92.2305 78.9558 93.5004 77.3781C94.7703 75.8005 94.5208 73.4921 92.9431 72.2221Z" fill="white"/>
<path d="M93.905 63.5812C92.3273 62.3113 90.0189 62.5608 88.749 64.1385C87.4791 65.7162 87.7286 68.0246 89.3063 69.2945C90.8839 70.5644 93.1923 70.3149 94.4623 68.7372C95.7322 67.1596 95.4827 64.8511 93.905 63.5812Z" fill="white"/>
<path d="M93.9312 55.0435C92.3535 53.7736 90.0451 54.0231 88.7752 55.6008C87.5053 57.1785 87.7548 59.4869 89.3325 60.7568C90.9102 62.0267 93.2186 61.7772 94.4885 60.1995C95.7584 58.6218 95.5089 56.3134 93.9312 55.0435Z" fill="white"/>
<path d="M93.9557 46.5049C92.378 45.235 90.0696 45.4845 88.7997 47.0622C87.5298 48.6399 87.7793 50.9483 89.357 52.2182C90.9346 53.4881 93.2431 53.2386 94.513 51.6609C95.7829 50.0832 95.5334 47.7748 93.9557 46.5049Z" fill="white"/>
<path d="M92.9431 72.2221C91.3655 70.9522 89.057 71.2017 87.7871 72.7794C86.5172 74.3571 86.7667 76.6655 88.3444 77.9354C89.9221 79.2053 92.2305 78.9558 93.5004 77.3781C94.7703 75.8005 94.5208 73.4921 92.9431 72.2221Z" stroke="#DABA6E" stroke-width="1.32663"/>
<path d="M93.905 63.5812C92.3273 62.3113 90.0189 62.5608 88.749 64.1385C87.4791 65.7162 87.7286 68.0246 89.3063 69.2945C90.8839 70.5644 93.1923 70.3149 94.4623 68.7372C95.7322 67.1596 95.4827 64.8511 93.905 63.5812Z" stroke="#DABA6E" stroke-width="1.32663"/>
<path d="M93.9312 55.0435C92.3535 53.7736 90.0451 54.0231 88.7752 55.6008C87.5053 57.1785 87.7548 59.4869 89.3325 60.7568C90.9102 62.0267 93.2186 61.7772 94.4885 60.1995C95.7584 58.6218 95.5089 56.3134 93.9312 55.0435Z" stroke="#DABA6E" stroke-width="1.32663"/>
<path d="M93.9557 46.5049C92.378 45.235 90.0696 45.4845 88.7997 47.0622C87.5298 48.6399 87.7793 50.9483 89.357 52.2182C90.9346 53.4881 93.2431 53.2386 94.513 51.6609C95.7829 50.0832 95.5334 47.7748 93.9557 46.5049Z" stroke="#DABA6E" stroke-width="1.32663"/>
</svg>
