<svg width="158" height="62" viewBox="0 0 158 62" fill="none" xmlns="http://www.w3.org/2000/svg"><rect x=".986" y=".936" width="114.347" height="18.277" rx="1.769" fill="url(#paint0_linear)" fill-opacity=".5"/><rect x="21.039" y="42.59" width="114.347" height="1.275" rx=".638" fill="url(#paint1_linear)" fill-opacity=".5"/><rect x="21.039" y="44.716" width="114.347" height="1.275" rx=".638" fill="url(#paint2_linear)" fill-opacity=".5"/><rect x="21.039" y="46.842" width="114.347" height="1.275" rx=".638" fill="url(#paint3_linear)" fill-opacity=".5"/><rect x="79.494" y="8.587" width="78.507" height="18.277" rx="1.769" fill="url(#paint4_linear)" fill-opacity=".5"/><rect x="44.506" y="23.464" width="37.12" height="37.828" rx="1.769" fill="url(#paint5_linear)" fill-opacity=".5"/><rect x="21.467" y="30.264" width="15.36" height="15.726" rx="1.769" fill="url(#paint6_linear)" fill-opacity=".5"/><rect x="17.627" y="35.364" width="15.36" height="15.726" rx="1.769" fill="url(#paint7_linear)" fill-opacity=".5"/><defs><linearGradient id="paint0_linear" x1="111.066" y1="19.212" x2="13.395" y2="-2.41" gradientUnits="userSpaceOnUse"><stop stop-color="red"/><stop offset="1" stop-color="red" stop-opacity="0"/></linearGradient><linearGradient id="paint1_linear" x1="78.212" y1="42.59" x2="78.212" y2="43.865" gradientUnits="userSpaceOnUse"><stop stop-color="red"/><stop offset="1" stop-color="red" stop-opacity="0"/></linearGradient><linearGradient id="paint2_linear" x1="78.212" y1="44.716" x2="78.212" y2="45.991" gradientUnits="userSpaceOnUse"><stop stop-color="red"/><stop offset="1" stop-color="red" stop-opacity="0"/></linearGradient><linearGradient id="paint3_linear" x1="78.212" y1="46.842" x2="78.212" y2="48.117" gradientUnits="userSpaceOnUse"><stop stop-color="red"/><stop offset="1" stop-color="red" stop-opacity="0"/></linearGradient><linearGradient id="paint4_linear" x1="79.494" y1="8.587" x2="151.994" y2="26.995" gradientUnits="userSpaceOnUse"><stop stop-color="red"/><stop offset="1" stop-color="red" stop-opacity="0"/></linearGradient><linearGradient id="paint5_linear" x1="63.066" y1="23.464" x2="63.066" y2="61.292" gradientUnits="userSpaceOnUse"><stop stop-color="red" stop-opacity="0"/><stop offset="1" stop-color="red"/></linearGradient><linearGradient id="paint6_linear" x1="29.147" y1="30.264" x2="29.147" y2="45.99" gradientUnits="userSpaceOnUse"><stop stop-color="red"/><stop offset="1" stop-color="red" stop-opacity="0"/></linearGradient><linearGradient id="paint7_linear" x1="18.267" y1="48.54" x2="32.943" y2="36.797" gradientUnits="userSpaceOnUse"><stop stop-color="red"/><stop offset="1" stop-color="red" stop-opacity="0"/></linearGradient></defs></svg>