<svg width="85" height="12" viewBox="0 0 85 12" fill="none" xmlns="http://www.w3.org/2000/svg"><path d="M33.679.897a.124.124 0 0 0-.121.127v10.678c0 .07.054.126.121.126h1.983a.124.124 0 0 0 .121-.126V5.51c0-.024.018-.043.04-.043a.04.04 0 0 1 .03.014l5.475 6.132a.637.637 0 0 0 .475.215h.494a.124.124 0 0 0 .122-.126V1.024a.124.124 0 0 0-.122-.127h-1.861a.124.124 0 0 0-.121.127v6.413a.041.041 0 0 1-.04.042.04.04 0 0 1-.03-.014l-5.62-6.35a.636.636 0 0 0-.477-.218h-.469z" fill="#121217" fill-opacity=".9"/><path fill-rule="evenodd" clip-rule="evenodd" d="M31.934 9.382c.211-1.518-.36-2.666-1.665-3.335l.04-.033c.088-.07.172-.138.252-.21.898-.743 1.196-2.057.681-3.153-.545-1.166-1.489-1.663-2.638-1.687C27.702.945 26.8.948 25.9.951c-.546.002-1.091.004-1.636.001-.198-.001-.272.037-.272.278.01 3.477.01 6.955 0 10.436 0 .286.114.286.307.286 1.399-.004 2.796-.004 4.192 0 .33.003.66-.024.986-.08 1.258-.213 2.284-1.25 2.456-2.49zm-5.86-2.262a.083.083 0 0 0-.08.084v2.648c0 .047.036.084.08.084h2.216c.696 0 1.413-.524 1.386-1.429-.028-.905-.655-1.387-1.386-1.387h-2.215zM25.995 3c0-.047.036-.084.08-.085a124.44 124.44 0 0 1 2.145 0c.489.009 1.064.34 1.073 1.136.008.795-.476 1.179-1.073 1.178h-2.144a.083.083 0 0 1-.081-.084V2.999zM50.252 11.822c3.027.032 5.488-2.367 5.531-5.426.043-2.98-2.42-5.47-5.44-5.498-2.983-.028-5.449 2.39-5.482 5.457-.032 3.053 2.477 5.436 5.392 5.467zm-3.324-5.444c.021-1.917 1.545-3.428 3.394-3.41 1.879.017 3.417 1.571 3.391 3.399-.027 1.916-1.55 3.407-3.44 3.387-1.84-.02-3.364-1.534-3.345-3.376z" fill="#121217" fill-opacity=".9"/><path d="M14.781 1.464c0-.26.032-.361.334-.36 1.484.011 3.87.011 7.155.002.137 0 .248.11.248.247v1.655a.248.248 0 0 1-.248.249h-5.045a.248.248 0 0 0-.248.248V5.16c0 .137.11.248.248.248h4.88c.137 0 .248.112.248.249v1.53a.248.248 0 0 1-.248.25h-4.88a.248.248 0 0 0-.248.247v1.78c0 .137.11.248.248.248h5.045c.137 0 .248.111.248.248v1.655a.248.248 0 0 1-.248.249c-3.27-.005-5.68-.005-7.23 0-.259 0-.257-.122-.254-.281v-.306c.002-1.985.006-8.296-.005-9.813zM68.45 1.105c-.303-.002-.335.098-.335.359.01 1.512.007 7.786.006 9.794v.28l-.001.044c-.003.16-.005.282.255.282 1.55-.005 3.959-.005 7.229 0a.249.249 0 0 0 .248-.249V9.96a.248.248 0 0 0-.248-.248h-5.045a.248.248 0 0 1-.249-.248v-1.78c0-.137.111-.248.249-.248h4.88a.248.248 0 0 0 .248-.248V5.657a.248.248 0 0 0-.248-.249h-4.88a.248.248 0 0 1-.249-.248V3.505c0-.137.111-.248.249-.248h5.045a.248.248 0 0 0 .248-.249V1.354a.249.249 0 0 0-.249-.248c-3.285.01-5.67.01-7.154-.001zM79.493 1.121h-1.79a.124.124 0 0 0-.125.125V11.83c0 .068.055.124.124.124h6.973a.124.124 0 0 0 .124-.124V10a.124.124 0 0 0-.125-.125l-4.809.014a.124.124 0 0 1-.124-.124V1.37a.248.248 0 0 0-.248-.249zM55.968 1.32h2.011c.14 0 .27.08.333.206l3.043 6.104a.083.083 0 0 0 .148 0l3.01-6.103a.372.372 0 0 1 .334-.207h1.887a.124.124 0 0 1 .11.18l-4.992 9.902a.495.495 0 0 1-.883.005L55.86 1.5a.124.124 0 0 1 .11-.181zM10.326 3.385v4.402l-3.303-3.22c-.243-.176-.28-.176-.53 0L3.047 7.699c-.003-1.18-.004-2.828-.004-4.313 0-.93-.636-1.661-1.908-2.194a.124.124 0 0 0-.172.114v10.087a.33.33 0 0 0 .544.253l5.258-4.463 5.259 4.42a.33.33 0 0 0 .542-.254V1.29a.124.124 0 0 0-.169-.115c-1.38.54-2.07 1.277-2.07 2.21z" fill="#121217" fill-opacity=".9"/></svg>