<svg width="36" height="18" viewBox="0 0 36 18" fill="none" xmlns="http://www.w3.org/2000/svg"><path d="M7.693 13.083l3.04 2.573a4.982 4.982 0 0 0 3.467 1.159l2.385-.12 3.361.5a5.09 5.09 0 0 0 4.251-1.345l.596-.568 2.797-.56-2.497-1.614 2.652.11 4.354-.02 2.117-.397c1.016-.19 1.106-1.57.122-1.859l-2.572-.756c-.752-.222-1.41-2.155-2.069-2.58-.406-.263-.423-.865-.26-1.32.262-.73.02-1.586-.701-2.053l-4.667-3.019a5.046 5.046 0 0 0-4.216-.57l-6.076 1.867A10.143 10.143 0 0 0 10.58 4.16L.469 11.924l7.224 1.159z" fill="#fff"/><path d="M25.093 13.108l2.652.11 4.354-.02 2.117-.397c1.016-.19 1.106-1.57.122-1.859l-2.572-.756c-.752-.222-1.41-2.155-2.069-2.58-.406-.263-.423-.865-.26-1.32.262-.73.02-1.586-.701-2.053l-4.667-3.019a5.046 5.046 0 0 0-4.216-.57l-6.076 1.867A10.143 10.143 0 0 0 10.58 4.16L.469 11.924l7.224 1.159 3.04 2.573a4.982 4.982 0 0 0 3.467 1.159l2.385-.12 3.361.5a5.09 5.09 0 0 0 4.251-1.345l.596-.568 2.797-.56-2.497-1.614zm0 0l-5.066.419" stroke="#DABA6E" stroke-width=".618" stroke-linecap="round" stroke-linejoin="round"/><path d="M19.15 14.838l.871-1.254m9.178-4.08l-6.195-.266m6.435-1.8l-1.102-.588a5.016 5.016 0 0 0-2.336-.587l-3.125-.015m6.19-1.805l-.627-.351a5.006 5.006 0 0 0-2.25-.632l-3.042-.12" stroke="#DABA6E" stroke-width=".618" stroke-linecap="round" stroke-linejoin="round"/></svg>