<svg width="153" height="124" viewBox="0 0 153 124" fill="none" xmlns="http://www.w3.org/2000/svg"><rect x=".293" y="16.151" width="135.68" height="1.275" rx=".638" fill="url(#paint0_linear)" fill-opacity=".5"/><rect x=".293" y="18.275" width="135.68" height="1.275" rx=".638" fill="url(#paint1_linear)" fill-opacity=".5"/><rect x=".293" y="20.402" width="135.68" height="1.275" rx=".638" fill="url(#paint2_linear)" fill-opacity=".5"/><rect x="102.693" y="56.105" width="49.493" height="50.154" rx="1.769" fill="url(#paint3_linear)" fill-opacity=".5"/><rect x="85.199" y="88.408" width="34.56" height="35.278" rx="1.769" fill="url(#paint4_linear)" fill-opacity=".5"/><rect x=".293" y="24.227" width="110.933" height="51.855" rx="1.769" fill="url(#paint5_linear)" fill-opacity=".5"/><rect x="95.865" width="37.12" height="37.828" rx="1.769" fill="url(#paint6_linear)" fill-opacity=".5"/><defs><linearGradient id="paint0_linear" x1="68.133" y1="16.151" x2="68.133" y2="17.427" gradientUnits="userSpaceOnUse"><stop stop-color="red"/><stop offset="1" stop-color="red" stop-opacity="0"/></linearGradient><linearGradient id="paint1_linear" x1="68.133" y1="18.275" x2="68.133" y2="19.55" gradientUnits="userSpaceOnUse"><stop stop-color="red"/><stop offset="1" stop-color="red" stop-opacity="0"/></linearGradient><linearGradient id="paint2_linear" x1="68.133" y1="20.402" x2="68.133" y2="21.677" gradientUnits="userSpaceOnUse"><stop stop-color="red"/><stop offset="1" stop-color="red" stop-opacity="0"/></linearGradient><linearGradient id="paint3_linear" x1="93.52" y1="74.17" x2="127.317" y2="106.389" gradientUnits="userSpaceOnUse"><stop stop-color="red"/><stop offset=".427" stop-color="red" stop-opacity=".573"/><stop offset="1" stop-color="red" stop-opacity="0"/></linearGradient><linearGradient id="paint4_linear" x1="78.794" y1="101.114" x2="102.557" y2="123.604" gradientUnits="userSpaceOnUse"><stop stop-color="red"/><stop offset=".427" stop-color="red" stop-opacity=".573"/><stop offset="1" stop-color="red" stop-opacity="0"/></linearGradient><linearGradient id="paint5_linear" x1="55.76" y1="24.227" x2="55.76" y2="76.082" gradientUnits="userSpaceOnUse"><stop stop-color="red"/><stop offset="1" stop-color="red" stop-opacity="0"/></linearGradient><linearGradient id="paint6_linear" x1="114.425" x2="114.425" y2="37.828" gradientUnits="userSpaceOnUse"><stop stop-color="red"/><stop offset="1" stop-color="red" stop-opacity="0"/></linearGradient></defs></svg>